Coordinates
version=1
nRows=54
nColumns=12
inDegrees=yes

Units are S.I. units (second, meters, Newtons, ...)
Angles are in degrees

endheader
time	SC_y	SC_z	SC_x	AC_y	AC_z	AC_x	GH_y	GH_z	GH_yy	EL_x	PS_y
       0.0              -34.43           18.4           32.2          60.43        -0.9947          10.18         -165.5         -9.414          74.15          72.95          132.0
   0.03016              -34.43           18.4           32.2          60.43        -0.9969          10.17         -165.4         -9.406          74.14          72.95          132.0
   0.06031              -34.42           18.4           32.2          60.43        -0.9992          10.17         -165.4         -9.398          74.13          72.96          132.0
   0.09047              -34.42           18.4           32.2          60.43         -1.002          10.17         -165.3         -9.389          74.11          72.96          132.0
    0.1206              -34.42          18.39           32.2          60.43         -1.004          10.16         -165.3          -9.38           74.1          72.97          132.0
    0.1508              -34.41          18.39           32.2          60.43         -1.007          10.16         -165.2          -9.37          74.09          72.98          132.0
    0.1809              -34.41          18.39           32.2          60.43          -1.01          10.15         -165.1         -9.359          74.07          72.98          131.9
    0.2111               -34.4          18.38           32.2          60.43         -1.013          10.15         -165.1         -9.348          74.06          72.99          131.9
    0.2412               -34.4          18.38           32.2          60.43         -1.017          10.15         -165.0         -9.335          74.04           73.0          131.9
    0.2714              -34.39          18.38           32.2          60.43          -1.02          10.14         -164.9         -9.322          74.03          73.01          131.9
    0.3016              -34.39          18.37           32.2          60.44         -1.024          10.13         -164.8         -9.308          74.01          73.02          131.8
    0.3317              -34.38          18.37           32.2          60.44         -1.028          10.13         -164.7         -9.293          73.99          73.03          131.8
    0.3619              -34.38          18.36           32.2          60.44         -1.033          10.12         -164.6         -9.277          73.97          73.04          131.8
     0.392              -34.37          18.36           32.2          60.44         -1.038          10.11         -164.5         -9.259          73.94          73.05          131.7
    0.4222              -34.37          18.35           32.2          60.44         -1.043          10.11         -164.4          -9.24          73.92          73.07          131.7
    0.4523              -34.36          18.35           32.2          60.44         -1.049           10.1         -164.3         -9.219          73.89          73.08          131.7
    0.4825              -34.35          18.34           32.2          60.44         -1.055          10.09         -164.2         -9.197          73.86           73.1          131.6
    0.5127              -34.34          18.33           32.2          60.45         -1.062          10.08         -164.0         -9.172          73.83          73.11          131.6
    0.5428              -34.33          18.32          32.21          60.45         -1.069          10.07         -163.8         -9.146          73.79          73.13          131.5
     0.573              -34.32          18.31          32.21          60.45         -1.077          10.06         -163.7         -9.116          73.75          73.15          131.4
    0.6031              -34.31           18.3          32.21          60.45         -1.086          10.04         -163.5         -9.084          73.71          73.17          131.4
    0.6333               -34.3          18.29          32.21          60.46         -1.096          10.03         -163.2         -9.049          73.66           73.2          131.3
    0.6634              -34.28          18.28          32.21          60.46         -1.107          10.01         -163.0          -9.01          73.61          73.22          131.2
    0.6936              -34.27          18.27          32.21          60.46         -1.119          9.997         -162.7         -8.966          73.55          73.25          131.1
    0.7237              -34.25          18.25          32.21          60.47         -1.132          9.978         -162.5         -8.918          73.49          73.29          131.0
    0.7539              -34.23          18.24          32.21          60.47         -1.147          9.956         -162.1         -8.865          73.42          73.32          130.9
    0.7841              -34.21          18.22          32.21          60.48         -1.164          9.932         -161.8         -8.804          73.34          73.36          130.8
    0.8142              -34.18           18.2          32.22          60.48         -1.182          9.905         -161.3         -8.737          73.25          73.41          130.7
    0.8444              -34.15          18.17          32.22          60.49         -1.204          9.874         -160.9          -8.66          73.14          73.46          130.5
    0.8745              -34.12          18.15          32.22           60.5         -1.228          9.839         -160.3         -8.573          73.03          73.52          130.3
    0.9047              -34.09          18.12          32.22          60.51         -1.255          9.799         -159.7         -8.474           72.9          73.59          130.1
    0.9348              -34.05          18.08          32.23          60.52         -1.287          9.753         -159.0          -8.36          72.75          73.67          129.9
     0.965               -34.0          18.04          32.23          60.53         -1.323            9.7         -158.2         -8.229          72.57          73.76          129.6
    0.9952              -33.94          17.99          32.23          60.54         -1.366          9.639         -157.3         -8.077          72.37          73.86          129.3
     1.025              -33.88          17.94          32.24          60.56         -1.415          9.567         -156.2         -7.898          72.13          73.99          129.0
     1.055               -33.8          17.87          32.24          60.57         -1.473          9.483         -154.9         -7.687          71.85          74.13          128.5
     1.086              -33.71           17.8          32.25           60.6         -1.543          9.382         -153.4         -7.437          71.52           74.3          128.0
     1.116               -33.6          17.71          32.26          60.62         -1.626          9.261         -151.6         -7.137          71.12          74.51          127.4
     1.146              -33.47          17.59          32.26          60.65         -1.726          9.116         -149.4         -6.775          70.63          74.76          126.7
     1.176              -33.31          17.46          32.28          60.69         -1.849          8.937         -146.7         -6.331          70.04          75.06          125.8
     1.206              -33.11          17.29          32.29          60.74         -2.001          8.717         -143.3         -5.784          69.32          75.44          124.7
     1.236              -32.86          17.08          32.31           60.8          -2.19          8.443         -139.2         -5.102          68.41          75.91          123.3
     1.267              -32.55          16.82          32.33          60.87         -2.428          8.098         -133.9         -4.243          67.26           76.5          121.5
     1.297              -32.16          16.48          32.35          60.97         -2.731          7.658         -127.2         -3.151          65.81          77.25          119.3
     1.327              -31.65          16.05          32.39          61.09         -3.119          7.096         -118.7         -1.753          63.95          78.21          116.4
     1.357               -31.0           15.5          32.43          61.24         -3.616          6.375         -107.8        0.04143          61.56          79.44          112.8
     1.387              -30.17           14.8          32.49          61.44         -4.252          5.453         -93.78          2.333          58.51          81.01          108.1
     1.417              -29.12          13.91          32.56          61.68         -5.051          4.295         -76.19          5.215          54.68          82.99          102.3
     1.447              -27.85          12.83          32.65          61.99         -6.024          2.883         -54.76          8.726           50.0           85.4          95.11
     1.478              -26.37          11.58          32.75          62.34         -7.153          1.246         -29.91           12.8          44.58           88.2          86.82
     1.508              -24.78          10.23          32.86          62.72         -8.375        -0.5259         -3.011           17.2          38.72          91.22          77.84
     1.538              -23.18          8.878          32.97           63.1         -9.596         -2.298          23.89          21.61          32.85          94.25          68.86
     1.568               -21.7          7.628          33.07          63.45         -10.73         -3.935          48.73          25.68          27.43          97.04          60.57
     1.598              -20.43           6.55          33.16          63.75          -11.7         -5.347          70.17          29.19          22.76          99.46          53.42
